<svg width="102" height="126" viewBox="0 0 102 126" fill="none" xmlns="http://www.w3.org/2000/svg">
<path d="M84.0816 0.798706L74.9786 17.3049H0.72168L4.24218 21.3457L48.5881 72.2135V112.56L18.0816 121.781V125.22H83.9125V121.781L53.4057 112.56V72.2059L97.7439 21.3459L101.264 17.3051H80.4886L88.2942 3.16516L84.0816 0.798706ZM11.3713 22.1668H72.2961L69.1383 27.8833C67.7587 27.352 66.2666 27.0538 64.7076 27.0538C60.2222 27.0538 56.2679 29.4692 54.0499 33.071H20.877L11.3713 22.1668ZM77.8064 22.1668H90.6145L81.1088 33.0708H75.3578C74.7649 32.108 74.0483 31.2304 73.2311 30.461L77.8067 22.1671L77.8064 22.1668ZM64.7076 31.9163C69.0001 31.9163 72.425 35.3847 72.425 39.7221C72.425 44.0595 69.0001 47.5201 64.7076 47.5201C60.415 47.5201 56.9819 44.0595 56.9819 39.7221C56.9824 39.4593 56.9979 39.1973 57.0227 38.9415C57.6052 39.9084 58.6474 40.5599 59.8505 40.5599C61.6838 40.5599 63.1772 39.0534 63.1772 37.2016C63.1772 35.3495 61.6836 33.8516 59.8497 33.8516C59.7595 33.8516 59.6724 33.8607 59.5842 33.8677C60.9443 32.6526 62.7325 31.9163 64.7073 31.9163H64.7076Z" fill="#E1D26C"/>
</svg>
