{"accessors" : [{"bufferView" : 0, "byteOffset" : 0, "componentType" : 5123, "count" : 1536, "type" : "SCALAR", "max" : [1023], "min" : [0]}, {"bufferView" : 1, "byteOffset" : 0, "componentType" : 5126, "count" : 1024, "type" : "VEC3", "max" : [131.72857666015625, 116.36830139160156, 219.93344116210938], "min" : [93.528564453125, 66.92756652832031, 214.15443420410156], "name" : "POSITION"}, {"bufferView" : 1, "byteOffset" : 12, "componentType" : 5126, "count" : 1024, "type" : "VEC3", "max" : [0.5985050201416016, 0.39411497116088867, 1.0000044107437134], "min" : [-0.29697608947753906, -0.7942460179328918, 0.10475586354732513], "name" : "NORMAL"}, {"bufferView" : 1, "byteOffset" : 24, "componentType" : 5126, "count" : 1024, "type" : "VEC2", "max" : [0.6336307525634766, 0.7993630170822144], "min" : [0.03359222412109375, 0.022842884063720703], "name" : "TEXCOORD_0"}], "asset" : {"generator" : "Aspose.3D 25.2.0", "version" : "2.0"}, "buffers" : [{"uri" : "data:application/octet-stream;base64,", "byteLength" : 35848}], "bufferViews" : [{"buffer" : 0, "byteOffset" : 0, "byteLength" : 3072, "target" : 34963}, {"buffer" : 0, "byteOffset" : 3076, "byteLength" : 32768, "byteStride" : 32, "target" : 34962}], "materials" : [{"name" : "posters_texture2", "pbrMetallicRoughness" : {"baseColorFactor" : [0, 0, 0, 1], "metallicFactor" : 1, "roughnessFactor" : 1}, "emissiveFactor" : [0, 0, 0], "alphaMode" : "OPAQUE", "doubleSided" : false}], "meshes" : [{"primitives" : [{"attributes" : {"POSITION" : 1, "NORMAL" : 2, "TEXCOORD_0" : 3}, "indices" : 0, "material" : 0, "mode" : 4}], "name" : ""}], "nodes" : [{"matrix" : [0.03280839895013123, 0, 0, 0, 0, 0.03280839895013123, 0, 0, 0, 0, 0.03280839895013123, 0, 1.8000878061813972, 0.8336046045658656, -7.105427357601002E-15, 1], "mesh" : 0, "name" : "experience_flyer"}], "scene" : 0, "scenes" : [{"nodes" : [0]}]}