{"accessors" : [{"bufferView" : 0, "byteOffset" : 0, "componentType" : 5123, "count" : 672, "type" : "SCALAR", "max" : [447], "min" : [0]}, {"bufferView" : 1, "byteOffset" : 0, "componentType" : 5126, "count" : 448, "type" : "VEC3", "max" : [0, 233.0244140625, 1.2984050512313843], "min" : [-327.6613464355469, 230.4276123046875, -1.2984050512313843], "name" : "POSITION"}, {"bufferView" : 1, "byteOffset" : 12, "componentType" : 5126, "count" : 448, "type" : "VEC3", "max" : [-0.001224616076797247, 0, 0.7003054618835449], "min" : [-1.0000044107437134, -0.923262357711792, 0], "name" : "NORMAL"}, {"bufferView" : 1, "byteOffset" : 24, "componentType" : 5126, "count" : 448, "type" : "VEC2", "max" : [0.6518256664276123, 0.9951171875], "min" : [0.0048828125, 0.0048828125], "name" : "TEXCOORD_0"}], "asset" : {"generator" : "Aspose.3D 25.2.0", "version" : "2.0"}, "buffers" : [{"uri" : "data:application/octet-stream;base64,", "byteLength" : 15688}], "bufferViews" : [{"buffer" : 0, "byteOffset" : 0, "byteLength" : 1344, "target" : 34963}, {"buffer" : 0, "byteOffset" : 1348, "byteLength" : 14336, "byteStride" : 32, "target" : 34962}], "materials" : [{"name" : "posters_texture2", "pbrMetallicRoughness" : {"baseColorFactor" : [0, 0, 0, 1], "metallicFactor" : 1, "roughnessFactor" : 1}, "emissiveFactor" : [0, 0, 0], "alphaMode" : "OPAQUE", "doubleSided" : false}], "meshes" : [{"primitives" : [{"attributes" : {"POSITION" : 1, "NORMAL" : 2, "TEXCOORD_0" : 3}, "indices" : 0, "material" : 0, "mode" : 4}], "name" : ""}], "nodes" : [{"matrix" : [0.0007609532027487877, 0, 0, 0, 0, 0.7792160796147586, 0, 0, 0, 0, 0.5090776926389393, 0, 6.332650041956757, -177.07790887881168, 1.051663487934502, 1], "mesh" : 0, "name" : "github_flyer"}], "scene" : 0, "scenes" : [{"nodes" : [0]}]}