{"accessors" : [{"bufferView" : 0, "byteOffset" : 0, "componentType" : 5123, "count" : 8070, "type" : "SCALAR", "max" : [5381], "min" : [0]}, {"bufferView" : 1, "byteOffset" : 0, "componentType" : 5126, "count" : 5382, "type" : "VEC3", "max" : [219.2264862060547, 388.2852783203125, 218.6600799560547], "min" : [-222.92652893066406, 1.518214225769043, -222.32533264160156], "name" : "POSITION"}, {"bufferView" : 1, "byteOffset" : 12, "componentType" : 5126, "count" : 5382, "type" : "VEC3", "max" : [1.0000044107437134, 1.0000044107437134, 1.0000044107437134], "min" : [-1.0000044107437134, -1.0000044107437134, -1.0000044107437134], "name" : "NORMAL"}, {"bufferView" : 1, "byteOffset" : 24, "componentType" : 5126, "count" : 5382, "type" : "VEC2", "max" : [0.9807736873626709, 0.9755859375], "min" : [0.031969308853149414, 0.0244140625], "name" : "TEXCOORD_0"}, {"bufferView" : 1, "byteOffset" : 32, "componentType" : 5126, "count" : 5382, "type" : "VEC2", "max" : [0.5361398458480835, 1], "min" : [0, 0.05959463119506836], "name" : "TEXCOORD_1"}, {"bufferView" : 1, "byteOffset" : 40, "componentType" : 5126, "count" : 5382, "type" : "VEC2", "max" : [0.9807736873626709, 0.9755859375], "min" : [0.031969308853149414, 0.0244140625], "name" : "TEXCOORD_2"}], "asset" : {"generator" : "Aspose.3D 25.2.0", "version" : "2.0"}, "buffers" : [{"uri" : "data:application/octet-stream;base64,", "byteLength" : 274484}], "bufferViews" : [{"buffer" : 0, "byteOffset" : 0, "byteLength" : 16140, "target" : 34963}, {"buffer" : 0, "byteOffset" : 16144, "byteLength" : 258336, "byteStride" : 48, "target" : 34962}], "materials" : [{"name" : "walls_substance", "pbrMetallicRoughness" : {"baseColorFactor" : [0, 0, 0, 1], "metallicFactor" : 1, "roughnessFactor" : 1}, "emissiveFactor" : [0, 0, 0], "alphaMode" : "OPAQUE", "doubleSided" : false}], "meshes" : [{"primitives" : [{"attributes" : {"POSITION" : 1, "NORMAL" : 2, "TEXCOORD_0" : 3, "TEXCOORD_1" : 4, "TEXCOORD_2" : 5}, "indices" : 0, "material" : 0, "mode" : 4}], "name" : ""}], "nodes" : [{"matrix" : [0.03280839895013123, 0, 0, 0, 0, 0.03280839895013123, 0, 0, 0, 0, 0.03280839895013123, 0, 5.329070518200751E-15, 1.4210854715202004E-14, 9.769962616701378E-15, 1], "mesh" : 0, "name" : "left_wall"}], "scene" : 0, "scenes" : [{"nodes" : [0]}]}