{
    "asset": {
        "version": "2.0",
        "generator": "Open Asset Import Library (assimp v5.2.cf7d3637)"
    },
    "extensionsUsed": [
        "KHR_materials_volume",
        "FB_ngon_encoding"
    ],
    "accessors": [
        {
            "bufferView": 0,
            "byteOffset": 0,
            "componentType": 5126,
            "count": 8070,
            "type": "VEC3",
            "max": [
                219.2264862060547,
                388.2852783203125,
                218.6600799560547
            ],
            "min": [
                -222.92652893066407,
                1.518214225769043,
                -222.32533264160157
            ]
        },
        {
            "bufferView": 1,
            "byteOffset": 0,
            "componentType": 5126,
            "count": 8070,
            "type": "VEC3",
            "max": [
                1.0,
                1.0,
                1.0
            ],
            "min": [
                -1.0,
                -1.0,
                -1.0
            ]
        },
        {
            "bufferView": 2,
            "byteOffset": 0,
            "componentType": 5126,
            "count": 8070,
            "type": "VEC2",
            "max": [
                0.9807736873626709,
                0.9755859375
            ],
            "min": [
                0.031969308853149417,
                0.0244140625
            ]
        },
        {
            "bufferView": 3,
            "byteOffset": 0,
            "componentType": 5126,
            "count": 8070,
            "type": "VEC2",
            "max": [
                0.5361398458480835,
                1.0
            ],
            "min": [
                0.0,
                0.05959463119506836
            ]
        },
        {
            "bufferView": 4,
            "byteOffset": 0,
            "componentType": 5126,
            "count": 8070,
            "type": "VEC2",
            "max": [
                0.9807736873626709,
                0.9755859375
            ],
            "min": [
                0.031969308853149417,
                0.0244140625
            ]
        },
        {
            "bufferView": 5,
            "byteOffset": 0,
            "componentType": 5125,
            "count": 8070,
            "type": "SCALAR",
            "max": [
                8069
            ],
            "min": [
                0
            ]
        }
    ],
    "buffers": [
        {
            "byteLength": 419640,
            "uri": "left_wall.bin"
        }
    ],
    "bufferViews": [
        {
            "buffer": 0,
            "byteOffset": 0,
            "byteLength": 96840,
            "target": 34962
        },
        {
            "buffer": 0,
            "byteOffset": 96840,
            "byteLength": 96840,
            "target": 34962
        },
        {
            "buffer": 0,
            "byteOffset": 193680,
            "byteLength": 64560,
            "target": 34962
        },
        {
            "buffer": 0,
            "byteOffset": 258240,
            "byteLength": 64560,
            "target": 34962
        },
        {
            "buffer": 0,
            "byteOffset": 322800,
            "byteLength": 64560,
            "target": 34962
        },
        {
            "buffer": 0,
            "byteOffset": 387360,
            "byteLength": 32280,
            "target": 34963
        }
    ],
    "materials": [
        {
            "name": "walls_substance",
            "pbrMetallicRoughness": {
                "metallicFactor": 0.0
            }
        }
    ],
    "meshes": [
        {
            "name": "left_wall",
            "primitives": [
                {
                    "extensions": {
                        "FB_ngon_encoding": {}
                    },
                    "mode": 4,
                    "material": 0,
                    "indices": 5,
                    "attributes": {
                        "POSITION": 0,
                        "NORMAL": 1,
                        "TEXCOORD_0": 2,
                        "TEXCOORD_1": 3,
                        "TEXCOORD_2": 4
                    }
                }
            ]
        }
    ],
    "nodes": [
        {
            "name": "RootNode",
            "children": [
                1
            ]
        },
        {
            "name": "left_wall_$AssimpFbx$_RotationPivot",
            "matrix": [
                1.0,
                0.0,
                0.0,
                0.0,
                0.0,
                1.0,
                0.0,
                0.0,
                0.0,
                0.0,
                1.0,
                0.0,
                -7.028428554534912,
                9.750743865966797,
                -5.859622001647949,
                1.0
            ],
            "children": [
                2
            ]
        },
        {
            "name": "left_wall_$AssimpFbx$_RotationPivotInverse",
            "matrix": [
                1.0,
                0.0,
                0.0,
                0.0,
                0.0,
                1.0,
                0.0,
                0.0,
                0.0,
                0.0,
                1.0,
                0.0,
                7.028428554534912,
                -9.750743865966797,
                5.859622001647949,
                1.0
            ],
            "children": [
                3
            ]
        },
        {
            "name": "left_wall_$AssimpFbx$_ScalingOffset",
            "matrix": [
                1.0,
                0.0,
                0.0,
                0.0,
                0.0,
                1.0,
                0.0,
                0.0,
                0.0,
                0.0,
                1.0,
                0.0,
                207.1980743408203,
                -287.4519348144531,
                172.7416534423828,
                1.0
            ],
            "children": [
                4
            ]
        },
        {
            "name": "left_wall_$AssimpFbx$_ScalingPivot",
            "matrix": [
                1.0,
                0.0,
                0.0,
                0.0,
                0.0,
                1.0,
                0.0,
                0.0,
                0.0,
                0.0,
                1.0,
                0.0,
                -214.22650146484376,
                297.2026672363281,
                -178.6012725830078,
                1.0
            ],
            "children": [
                5
            ]
        },
        {
            "name": "left_wall_$AssimpFbx$_Scaling",
            "matrix": [
                0.03280840069055557,
                0.0,
                0.0,
                0.0,
                0.0,
                0.03280840069055557,
                0.0,
                0.0,
                0.0,
                0.0,
                0.03280840069055557,
                0.0,
                0.0,
                0.0,
                0.0,
                1.0
            ],
            "children": [
                6
            ]
        },
        {
            "name": "left_wall_$AssimpFbx$_ScalingPivotInverse",
            "matrix": [
                1.0,
                0.0,
                0.0,
                0.0,
                0.0,
                1.0,
                0.0,
                0.0,
                0.0,
                0.0,
                1.0,
                0.0,
                214.22650146484376,
                -297.2026672363281,
                178.6012725830078,
                1.0
            ],
            "children": [
                7
            ]
        },
        {
            "name": "left_wall",
            "mesh": 0,
            "extras": {
                "UserProperties": "",
                "IsNull": false,
                "DefaultAttributeIndex": 0,
                "InheritType": 1,
                "RotationActive": true,
                "ScalingMax": null,
                "currentUVSet": "map1"
            }
        }
    ],
    "scenes": [
        {
            "nodes": [
                0
            ]
        }
    ],
    "scene": 0
}