{"accessors" : [{"bufferView" : 0, "byteOffset" : 0, "componentType" : 5123, "count" : 672, "type" : "SCALAR", "max" : [447], "min" : [0]}, {"bufferView" : 1, "byteOffset" : 0, "componentType" : 5126, "count" : 448, "type" : "VEC3", "max" : [193.086669921875, 158.20458984375, 4.790569305419922], "min" : [187.2725067138672, 100.45166015625, -33.73994445800781], "name" : "POSITION"}, {"bufferView" : 1, "byteOffset" : 12, "componentType" : 5126, "count" : 448, "type" : "VEC3", "max" : [-0.8440670967102051, 0.4441013038158417, 0.23137739300727844], "min" : [-1.0000044107437134, -3.5673417642101413E-06, -0.30055540800094604], "name" : "NORMAL"}, {"bufferView" : 1, "byteOffset" : 24, "componentType" : 5126, "count" : 448, "type" : "VEC2", "max" : [0.6633949279785156, 0.9951171875], "min" : [0.0048828125, 0.0048828125], "name" : "TEXCOORD_0"}], "asset" : {"generator" : "Aspose.3D 25.2.0", "version" : "2.0"}, "buffers" : [{"uri" : "data:application/octet-stream;base64,", "byteLength" : 15688}], "bufferViews" : [{"buffer" : 0, "byteOffset" : 0, "byteLength" : 1344, "target" : 34963}, {"buffer" : 0, "byteOffset" : 1348, "byteLength" : 14336, "byteStride" : 32, "target" : 34962}], "materials" : [{"name" : "posters_texture2", "pbrMetallicRoughness" : {"baseColorFactor" : [0, 0, 0, 1], "metallicFactor" : 1, "roughnessFactor" : 1}, "emissiveFactor" : [0, 0, 0], "alphaMode" : "OPAQUE", "doubleSided" : false}], "meshes" : [{"primitives" : [{"attributes" : {"POSITION" : 1, "NORMAL" : 2, "TEXCOORD_0" : 3}, "indices" : 0, "material" : 0, "mode" : 4}], "name" : ""}], "nodes" : [{"matrix" : [0.03280839895013123, 0, 0, 0, 0, 0.03280839895013123, 0, 0, 0, 0, 0.03280839895013123, 0, 0, 0, 0, 1], "mesh" : 0, "name" : "linkedin_flyer"}], "scene" : 0, "scenes" : [{"nodes" : [0]}]}