{"accessors" : [{"bufferView" : 0, "byteOffset" : 0, "componentType" : 5123, "count" : 480, "type" : "SCALAR", "max" : [319], "min" : [0]}, {"bufferView" : 1, "byteOffset" : 0, "componentType" : 5126, "count" : 320, "type" : "VEC3", "max" : [131.68605041503906, 116.36830139160156, 220.66604614257812], "min" : [93.528564453125, 66.98802185058594, 214.15443420410156], "name" : "POSITION"}, {"bufferView" : 1, "byteOffset" : 12, "componentType" : 5126, "count" : 320, "type" : "VEC3", "max" : [8.292563506984152E-06, 0.7429986000061035, 1.0000044107437134], "min" : [-0.5207026600837708, -2.472077312631882E-06, 0.4205124080181122], "name" : "NORMAL"}, {"bufferView" : 1, "byteOffset" : 24, "componentType" : 5126, "count" : 320, "type" : "VEC2", "max" : [0.6339163780212402, 0.7993630170822144], "min" : [0.033878326416015625, 0.022842884063720703], "name" : "TEXCOORD_0"}], "asset" : {"generator" : "Aspose.3D 25.2.0", "version" : "2.0"}, "buffers" : [{"uri" : "data:application/octet-stream;base64,", "byteLength" : 11208}], "bufferViews" : [{"buffer" : 0, "byteOffset" : 0, "byteLength" : 960, "target" : 34963}, {"buffer" : 0, "byteOffset" : 964, "byteLength" : 10240, "byteStride" : 32, "target" : 34962}], "materials" : [{"name" : "posters_texture2", "pbrMetallicRoughness" : {"baseColorFactor" : [0, 0, 0, 1], "metallicFactor" : 1, "roughnessFactor" : 1}, "emissiveFactor" : [0, 0, 0], "alphaMode" : "OPAQUE", "doubleSided" : false}], "meshes" : [{"primitives" : [{"attributes" : {"POSITION" : 1, "NORMAL" : 2, "TEXCOORD_0" : 3}, "indices" : 0, "material" : 0, "mode" : 4}], "name" : ""}], "nodes" : [{"matrix" : [0.03280839895013123, 0, 0, 0, 0, 0.03280839895013123, 0, 0, 0, 0, 0.03280839895013123, 0, 2.220446049250313E-15, 2.220446049250313E-15, -7.105427357601002E-15, 1], "mesh" : 0, "name" : "links_flyer"}], "scene" : 0, "scenes" : [{"nodes" : [0]}]}