{"accessors" : [{"bufferView" : 0, "byteOffset" : 0, "componentType" : 5123, "count" : 576, "type" : "SCALAR", "max" : [383], "min" : [0]}, {"bufferView" : 1, "byteOffset" : 0, "componentType" : 5126, "count" : 384, "type" : "VEC3", "max" : [131.68605041503906, 116.36830139160156, 218.1741180419922], "min" : [93.35470581054688, 66.77303314208984, 214.15443420410156], "name" : "POSITION"}, {"bufferView" : 1, "byteOffset" : 12, "componentType" : 5126, "count" : 384, "type" : "VEC3", "max" : [0.12200567871332169, 0.4435555040836334, 1.0000044107437134], "min" : [-0.3342466652393341, -2.4720807232370134E-06, 0.8315926790237427], "name" : "NORMAL"}, {"bufferView" : 1, "byteOffset" : 24, "componentType" : 5126, "count" : 384, "type" : "VEC2", "max" : [0.6169557571411133, 0.7993630170822144], "min" : [0.016917705535888672, 0.022842884063720703], "name" : "TEXCOORD_0"}], "asset" : {"generator" : "Aspose.3D 25.2.0", "version" : "2.0"}, "buffers" : [{"uri" : "data:application/octet-stream;base64,", "byteLength" : 13448}], "bufferViews" : [{"buffer" : 0, "byteOffset" : 0, "byteLength" : 1152, "target" : 34963}, {"buffer" : 0, "byteOffset" : 1156, "byteLength" : 12288, "byteStride" : 32, "target" : 34962}], "materials" : [{"name" : "posters_texture2", "pbrMetallicRoughness" : {"baseColorFactor" : [0, 0, 0, 1], "metallicFactor" : 1, "roughnessFactor" : 1}, "emissiveFactor" : [0, 0, 0], "alphaMode" : "OPAQUE", "doubleSided" : false}], "meshes" : [{"primitives" : [{"attributes" : {"POSITION" : 1, "NORMAL" : 2, "TEXCOORD_0" : 3}, "indices" : 0, "material" : 0, "mode" : 4}], "name" : ""}], "nodes" : [{"matrix" : [0.03280839895013123, 0, 0, 0, 0, 0.03280839895013123, 0, 0, 0, 0, 0.03280839895013123, 0, 0.42941188563541965, 1.8398030106233159, -7.105427357601002E-15, 1], "mesh" : 0, "name" : "projects_flyer"}], "scene" : 0, "scenes" : [{"nodes" : [0]}]}