{
    "asset": {
        "version": "2.0",
        "generator": "Open Asset Import Library (assimp v5.2.cf7d3637)"
    },
    "extensionsUsed": [
        "KHR_materials_volume",
        "FB_ngon_encoding"
    ],
    "accessors": [
        {
            "bufferView": 0,
            "byteOffset": 0,
            "componentType": 5126,
            "count": 10500,
            "type": "VEC3",
            "max": [
                222.927490234375,
                387.4873046875,
                222.32569885253907
            ],
            "min": [
                -194.60035705566407,
                1.518214225769043,
                -218.6253204345703
            ]
        },
        {
            "bufferView": 1,
            "byteOffset": 0,
            "componentType": 5126,
            "count": 10500,
            "type": "VEC3",
            "max": [
                1.0,
                1.0,
                1.0
            ],
            "min": [
                -1.0,
                -1.0,
                -1.0
            ]
        },
        {
            "bufferView": 2,
            "byteOffset": 0,
            "componentType": 5126,
            "count": 10500,
            "type": "VEC2",
            "max": [
                0.9794410467147827,
                0.9755859375
            ],
            "min": [
                0.028268933296203615,
                0.028753995895385743
            ]
        },
        {
            "bufferView": 3,
            "byteOffset": 0,
            "componentType": 5126,
            "count": 10500,
            "type": "VEC2",
            "max": [
                0.9794410467147827,
                0.9755859375
            ],
            "min": [
                0.028268933296203615,
                0.028753995895385743
            ]
        },
        {
            "bufferView": 4,
            "byteOffset": 0,
            "componentType": 5126,
            "count": 10500,
            "type": "VEC2",
            "max": [
                1.0,
                1.0
            ],
            "min": [
                0.0,
                0.0478900671005249
            ]
        },
        {
            "bufferView": 5,
            "byteOffset": 0,
            "componentType": 5125,
            "count": 10500,
            "type": "SCALAR",
            "max": [
                10499
            ],
            "min": [
                0
            ]
        }
    ],
    "buffers": [
        {
            "byteLength": 546000,
            "uri": "right_wall_and_platforms.bin"
        }
    ],
    "bufferViews": [
        {
            "buffer": 0,
            "byteOffset": 0,
            "byteLength": 126000,
            "target": 34962
        },
        {
            "buffer": 0,
            "byteOffset": 126000,
            "byteLength": 126000,
            "target": 34962
        },
        {
            "buffer": 0,
            "byteOffset": 252000,
            "byteLength": 84000,
            "target": 34962
        },
        {
            "buffer": 0,
            "byteOffset": 336000,
            "byteLength": 84000,
            "target": 34962
        },
        {
            "buffer": 0,
            "byteOffset": 420000,
            "byteLength": 84000,
            "target": 34962
        },
        {
            "buffer": 0,
            "byteOffset": 504000,
            "byteLength": 42000,
            "target": 34963
        }
    ],
    "materials": [
        {
            "name": "walls_substance",
            "pbrMetallicRoughness": {
                "metallicFactor": 0.0
            }
        }
    ],
    "meshes": [
        {
            "name": "right_wall_and_platforms",
            "primitives": [
                {
                    "extensions": {
                        "FB_ngon_encoding": {}
                    },
                    "mode": 4,
                    "material": 0,
                    "indices": 5,
                    "attributes": {
                        "POSITION": 0,
                        "NORMAL": 1,
                        "TEXCOORD_0": 2,
                        "TEXCOORD_1": 3,
                        "TEXCOORD_2": 4
                    }
                }
            ]
        }
    ],
    "nodes": [
        {
            "name": "RootNode",
            "children": [
                1
            ]
        },
        {
            "name": "right_wall_and_platforms_$AssimpFbx$_RotationPivot",
            "matrix": [
                1.0,
                0.0,
                0.0,
                0.0,
                0.0,
                1.0,
                0.0,
                0.0,
                0.0,
                0.0,
                1.0,
                0.0,
                0.4646839499473572,
                6.381324291229248,
                0.06070174649357796,
                1.0
            ],
            "children": [
                2
            ]
        },
        {
            "name": "right_wall_and_platforms_$AssimpFbx$_RotationPivotInverse",
            "matrix": [
                1.0,
                0.0,
                0.0,
                0.0,
                0.0,
                1.0,
                0.0,
                0.0,
                0.0,
                0.0,
                1.0,
                0.0,
                -0.4646839499473572,
                -6.381324291229248,
                -0.06070174649357796,
                1.0
            ],
            "children": [
                3
            ]
        },
        {
            "name": "right_wall_and_platforms_$AssimpFbx$_ScalingOffset",
            "matrix": [
                1.0,
                0.0,
                0.0,
                0.0,
                0.0,
                1.0,
                0.0,
                0.0,
                0.0,
                0.0,
                1.0,
                0.0,
                -13.698883056640625,
                -188.12142944335938,
                -1.7894874811172486,
                1.0
            ],
            "children": [
                4
            ]
        },
        {
            "name": "right_wall_and_platforms_$AssimpFbx$_ScalingPivot",
            "matrix": [
                1.0,
                0.0,
                0.0,
                0.0,
                0.0,
                1.0,
                0.0,
                0.0,
                0.0,
                0.0,
                1.0,
                0.0,
                14.163566589355469,
                194.5027618408203,
                1.850189208984375,
                1.0
            ],
            "children": [
                5
            ]
        },
        {
            "name": "right_wall_and_platforms_$AssimpFbx$_Scaling",
            "matrix": [
                0.03280840069055557,
                0.0,
                0.0,
                0.0,
                0.0,
                0.03280840069055557,
                0.0,
                0.0,
                0.0,
                0.0,
                0.03280840069055557,
                0.0,
                0.0,
                0.0,
                0.0,
                1.0
            ],
            "children": [
                6
            ]
        },
        {
            "name": "right_wall_and_platforms_$AssimpFbx$_ScalingPivotInverse",
            "matrix": [
                1.0,
                0.0,
                0.0,
                0.0,
                0.0,
                1.0,
                0.0,
                0.0,
                0.0,
                0.0,
                1.0,
                0.0,
                -14.163566589355469,
                -194.5027618408203,
                -1.850189208984375,
                1.0
            ],
            "children": [
                7
            ]
        },
        {
            "name": "right_wall_and_platforms",
            "mesh": 0,
            "extras": {
                "UserProperties": "",
                "IsNull": false,
                "DefaultAttributeIndex": 0,
                "InheritType": 1,
                "RotationActive": true,
                "ScalingMax": null,
                "currentUVSet": "old"
            }
        }
    ],
    "scenes": [
        {
            "nodes": [
                0
            ]
        }
    ],
    "scene": 0
}