{"accessors" : [{"bufferView" : 0, "byteOffset" : 0, "componentType" : 5123, "count" : 5616, "type" : "SCALAR", "max" : [3859], "min" : [0]}, {"bufferView" : 1, "byteOffset" : 0, "componentType" : 5126, "count" : 3860, "type" : "VEC3", "max" : [340.52862548828125, 43.46841049194336, 275.3587646484375], "min" : [-307.14007568359375, -0.25550174713134766, -336.5489501953125], "name" : "POSITION"}, {"bufferView" : 1, "byteOffset" : 12, "componentType" : 5126, "count" : 3860, "type" : "VEC3", "max" : [0.9511108994483948, 1.0000042915344238, 0.9408206343650818], "min" : [-0.9468626976013184, 0.2597716450691223, -0.9375178217887878], "name" : "NORMAL"}, {"bufferView" : 1, "byteOffset" : 24, "componentType" : 5126, "count" : 3860, "type" : "VEC2", "max" : [0.6993255615234375, 0.9951171875], "min" : [0.0048828125, 0.27142536640167236], "name" : "TEXCOORD_0"}, {"bufferView" : 0, "byteOffset" : 11232, "componentType" : 5123, "count" : 10224, "type" : "SCALAR", "max" : [6815], "min" : [0]}, {"bufferView" : 2, "byteOffset" : 0, "componentType" : 5126, "count" : 6816, "type" : "VEC3", "max" : [338.48956298828125, 34.3348388671875, 284.68963623046875], "min" : [-296.33966064453125, -8.449264526367188, -315.11968994140625], "name" : "POSITION"}, {"bufferView" : 2, "byteOffset" : 12, "componentType" : 5126, "count" : 6816, "type" : "VEC3", "max" : [0.9999423623085022, 1.0000044107437134, 0.9999017119407654], "min" : [-0.9999423623085022, -1.0000044107437134, -0.9998590350151062], "name" : "NORMAL"}, {"bufferView" : 2, "byteOffset" : 24, "componentType" : 5126, "count" : 6816, "type" : "VEC2", "max" : [0.9951171875, 0.9951171875], "min" : [0.0048828125, 0.017890870571136475], "name" : "TEXCOORD_0"}], "asset" : {"generator" : "Aspose.3D 25.2.0", "version" : "2.0"}, "buffers" : [{"uri" : "data:application/octet-stream;base64,", "byteLength" : 373324}], "bufferViews" : [{"buffer" : 0, "byteOffset" : 0, "byteLength" : 31680, "target" : 34963}, {"buffer" : 0, "byteOffset" : 31684, "byteLength" : 123520, "byteStride" : 32, "target" : 34962}, {"buffer" : 0, "byteOffset" : 155208, "byteLength" : 218112, "byteStride" : 32, "target" : 34962}], "materials" : [{"name" : "aiStandardSurface3", "pbrMetallicRoughness" : {"baseColorFactor" : [0, 0, 0, 1], "metallicFactor" : 1, "roughnessFactor" : 1}, "emissiveFactor" : [0, 0, 0], "alphaMode" : "OPAQUE", "doubleSided" : false}], "meshes" : [{"primitives" : [{"attributes" : {"POSITION" : 1, "NORMAL" : 2, "TEXCOORD_0" : 3}, "indices" : 0, "material" : 0, "mode" : 4}, {"attributes" : {"POSITION" : 5, "NORMAL" : 6, "TEXCOORD_0" : 7}, "indices" : 4, "material" : 0, "mode" : 4}], "name" : ""}], "nodes" : [{"matrix" : [0.03280839895013123, 0, 0, 0, 0, 0.03280839895013123, 0, 0, 0, 0, 0.03280839895013123, 0, -3.3306690738754696E-16, -2.220446049250313E-16, -1.2212453270876722E-15, 1], "mesh" : 0, "name" : "sand_rubble"}], "scene" : 0, "scenes" : [{"nodes" : [0]}]}