{
    "asset": {
        "version": "2.0",
        "generator": "Open Asset Import Library (assimp v5.2.cf7d3637)"
    },
    "extensionsUsed": [
        "KHR_materials_volume",
        "FB_ngon_encoding"
    ],
    "accessors": [
        {
            "bufferView": 0,
            "byteOffset": 0,
            "componentType": 5126,
            "count": 5616,
            "type": "VEC3",
            "max": [
                340.52862548828127,
                43.46841049194336,
                275.3587646484375
            ],
            "min": [
                -307.14007568359377,
                -0.25550174713134768,
                -336.5489501953125
            ]
        },
        {
            "bufferView": 1,
            "byteOffset": 0,
            "componentType": 5126,
            "count": 5616,
            "type": "VEC3",
            "max": [
                0.95110684633255,
                1.0,
                0.9408164620399475
            ],
            "min": [
                -0.9468585252761841,
                0.2597705125808716,
                -0.9375138282775879
            ]
        },
        {
            "bufferView": 2,
            "byteOffset": 0,
            "componentType": 5126,
            "count": 5616,
            "type": "VEC2",
            "max": [
                0.6993255615234375,
                0.9951171875
            ],
            "min": [
                0.0048828125,
                0.27142536640167239
            ]
        },
        {
            "bufferView": 3,
            "byteOffset": 0,
            "componentType": 5125,
            "count": 5616,
            "type": "SCALAR",
            "max": [
                5615
            ],
            "min": [
                0
            ]
        },
        {
            "bufferView": 4,
            "byteOffset": 0,
            "componentType": 5126,
            "count": 10224,
            "type": "VEC3",
            "max": [
                338.48956298828127,
                34.3348388671875,
                284.68963623046877
            ],
            "min": [
                -296.33966064453127,
                -8.449264526367188,
                -315.11968994140627
            ]
        },
        {
            "bufferView": 5,
            "byteOffset": 0,
            "componentType": 5126,
            "count": 10224,
            "type": "VEC3",
            "max": [
                0.9999991655349731,
                1.0,
                0.9998974204063416
            ],
            "min": [
                -0.9999380707740784,
                -1.0,
                -0.9998547434806824
            ]
        },
        {
            "bufferView": 6,
            "byteOffset": 0,
            "componentType": 5126,
            "count": 10224,
            "type": "VEC2",
            "max": [
                0.9951171875,
                0.9951133728027344
            ],
            "min": [
                0.0048828125,
                0.017890870571136476
            ]
        },
        {
            "bufferView": 7,
            "byteOffset": 0,
            "componentType": 5125,
            "count": 10224,
            "type": "SCALAR",
            "max": [
                10223
            ],
            "min": [
                0
            ]
        }
    ],
    "buffers": [
        {
            "byteLength": 570240,
            "uri": "sand_rubble.bin"
        }
    ],
    "bufferViews": [
        {
            "buffer": 0,
            "byteOffset": 0,
            "byteLength": 67392,
            "target": 34962
        },
        {
            "buffer": 0,
            "byteOffset": 67392,
            "byteLength": 67392,
            "target": 34962
        },
        {
            "buffer": 0,
            "byteOffset": 134784,
            "byteLength": 44928,
            "target": 34962
        },
        {
            "buffer": 0,
            "byteOffset": 179712,
            "byteLength": 22464,
            "target": 34963
        },
        {
            "buffer": 0,
            "byteOffset": 202176,
            "byteLength": 122688,
            "target": 34962
        },
        {
            "buffer": 0,
            "byteOffset": 324864,
            "byteLength": 122688,
            "target": 34962
        },
        {
            "buffer": 0,
            "byteOffset": 447552,
            "byteLength": 81792,
            "target": 34962
        },
        {
            "buffer": 0,
            "byteOffset": 529344,
            "byteLength": 40896,
            "target": 34963
        }
    ],
    "materials": [
        {
            "name": "aiStandardSurface3",
            "pbrMetallicRoughness": {
                "metallicFactor": 0.0
            }
        },
        {
            "name": "walls_substance",
            "pbrMetallicRoughness": {
                "metallicFactor": 0.0
            }
        }
    ],
    "meshes": [
        {
            "name": "sand_rubble",
            "primitives": [
                {
                    "extensions": {
                        "FB_ngon_encoding": {}
                    },
                    "mode": 4,
                    "material": 0,
                    "indices": 3,
                    "attributes": {
                        "POSITION": 0,
                        "NORMAL": 1,
                        "TEXCOORD_0": 2
                    }
                },
                {
                    "extensions": {
                        "FB_ngon_encoding": {}
                    },
                    "mode": 4,
                    "material": 1,
                    "indices": 7,
                    "attributes": {
                        "POSITION": 4,
                        "NORMAL": 5,
                        "TEXCOORD_0": 6
                    }
                }
            ]
        }
    ],
    "nodes": [
        {
            "name": "RootNode",
            "children": [
                1
            ]
        },
        {
            "name": "sand_rubble_$AssimpFbx$_RotationPivot",
            "matrix": [
                1.0,
                0.0,
                0.0,
                0.0,
                0.0,
                1.0,
                0.0,
                0.0,
                0.0,
                0.0,
                1.0,
                0.0,
                0.5477124452590942,
                0.574461042881012,
                -0.8507105112075806,
                1.0
            ],
            "children": [
                2
            ]
        },
        {
            "name": "sand_rubble_$AssimpFbx$_RotationPivotInverse",
            "matrix": [
                1.0,
                0.0,
                0.0,
                0.0,
                0.0,
                1.0,
                0.0,
                0.0,
                0.0,
                0.0,
                1.0,
                0.0,
                -0.5477124452590942,
                -0.574461042881012,
                0.8507105112075806,
                1.0
            ],
            "children": [
                3
            ]
        },
        {
            "name": "sand_rubble_$AssimpFbx$_ScalingOffset",
            "matrix": [
                1.0,
                0.0,
                0.0,
                0.0,
                0.0,
                1.0,
                0.0,
                0.0,
                0.0,
                0.0,
                1.0,
                0.0,
                -16.146562576293947,
                -16.93511199951172,
                25.078947067260743,
                1.0
            ],
            "children": [
                4
            ]
        },
        {
            "name": "sand_rubble_$AssimpFbx$_ScalingPivot",
            "matrix": [
                1.0,
                0.0,
                0.0,
                0.0,
                0.0,
                1.0,
                0.0,
                0.0,
                0.0,
                0.0,
                1.0,
                0.0,
                16.69427490234375,
                17.509572982788087,
                -25.929656982421876,
                1.0
            ],
            "children": [
                5
            ]
        },
        {
            "name": "sand_rubble_$AssimpFbx$_Scaling",
            "matrix": [
                0.03280840069055557,
                0.0,
                0.0,
                0.0,
                0.0,
                0.03280840069055557,
                0.0,
                0.0,
                0.0,
                0.0,
                0.03280840069055557,
                0.0,
                0.0,
                0.0,
                0.0,
                1.0
            ],
            "children": [
                6
            ]
        },
        {
            "name": "sand_rubble_$AssimpFbx$_ScalingPivotInverse",
            "matrix": [
                1.0,
                0.0,
                0.0,
                0.0,
                0.0,
                1.0,
                0.0,
                0.0,
                0.0,
                0.0,
                1.0,
                0.0,
                -16.69427490234375,
                -17.509572982788087,
                25.929656982421876,
                1.0
            ],
            "children": [
                7
            ]
        },
        {
            "name": "sand_rubble",
            "mesh": 0,
            "extras": {
                "UserProperties": "",
                "IsNull": false,
                "DefaultAttributeIndex": 0,
                "InheritType": 1,
                "RotationActive": true,
                "ScalingMax": null,
                "currentUVSet": "map1"
            }
        }
    ],
    "scenes": [
        {
            "nodes": [
                0
            ]
        }
    ],
    "scene": 0
}