<svg width="39" height="26" viewBox="0 0 39 26" fill="none" xmlns="http://www.w3.org/2000/svg">
<path d="M2 2H24.8485" stroke="#757575" stroke-width="3" stroke-linecap="round"/>
<path d="M2 9H20.4545" stroke="#898989" stroke-width="3" stroke-linecap="round"/>
<path d="M2 16H16.9394" stroke="#9D9B9B" stroke-width="3" stroke-linecap="round"/>
<path d="M2 23H13.4242" stroke="#B4B4B4" stroke-width="3" stroke-linecap="round"/>
<path d="M32 2C32 1.44772 31.5523 1 31 1C30.4477 1 30 1.44772 30 2H32ZM30.2929 25.7071C30.6834 26.0976 31.3166 26.0976 31.7071 25.7071L38.0711 19.3431C38.4616 18.9526 38.4616 18.3195 38.0711 17.9289C37.6805 17.5384 37.0474 17.5384 36.6569 17.9289L31 23.5858L25.3431 17.9289C24.9526 17.5384 24.3195 17.5384 23.9289 17.9289C23.5384 18.3195 23.5384 18.9526 23.9289 19.3431L30.2929 25.7071ZM31 2H30V25H31H32V2H31Z" fill="url(#paint0_linear_66_12)"/>
<defs>
<linearGradient id="paint0_linear_66_12" x1="30.5" y1="2" x2="30.5" y2="25" gradientUnits="userSpaceOnUse">
<stop stop-color="#858585"/>
<stop offset="1" stop-color="#B5B5B5"/>
</linearGradient>
</defs>
</svg>
