{
    "asset": {
        "version": "2.0",
        "generator": "Open Asset Import Library (assimp v5.2.cf7d3637)"
    },
    "extensionsUsed": [
        "KHR_materials_volume",
        "FB_ngon_encoding"
    ],
    "accessors": [
        {
            "bufferView": 0,
            "byteOffset": 0,
            "componentType": 5126,
            "count": 672,
            "type": "VEC3",
            "max": [
                0.0,
                233.0244140625,
                1.2984050512313843
            ],
            "min": [
                -327.6613464355469,
                230.4276123046875,
                -1.2984050512313843
            ]
        },
        {
            "bufferView": 1,
            "byteOffset": 0,
            "componentType": 5126,
            "count": 672,
            "type": "VEC3",
            "max": [
                -0.001224610721692443,
                0.0,
                0.7003024220466614
            ],
            "min": [
                -1.0,
                -0.9232584238052368,
                0.0
            ]
        },
        {
            "bufferView": 2,
            "byteOffset": 0,
            "componentType": 5126,
            "count": 672,
            "type": "VEC2",
            "max": [
                1.6518256664276124,
                -0.0048828125
            ],
            "min": [
                1.0048828125,
                -0.9951171875
            ]
        },
        {
            "bufferView": 3,
            "byteOffset": 0,
            "componentType": 5125,
            "count": 672,
            "type": "SCALAR",
            "max": [
                671
            ],
            "min": [
                0
            ]
        }
    ],
    "buffers": [
        {
            "byteLength": 24192,
            "uri": "github_flyer.bin"
        }
    ],
    "bufferViews": [
        {
            "buffer": 0,
            "byteOffset": 0,
            "byteLength": 8064,
            "target": 34962
        },
        {
            "buffer": 0,
            "byteOffset": 8064,
            "byteLength": 8064,
            "target": 34962
        },
        {
            "buffer": 0,
            "byteOffset": 16128,
            "byteLength": 5376,
            "target": 34962
        },
        {
            "buffer": 0,
            "byteOffset": 21504,
            "byteLength": 2688,
            "target": 34963
        }
    ],
    "materials": [
        {
            "name": "posters_texture2",
            "pbrMetallicRoughness": {
                "metallicFactor": 0.0
            }
        }
    ],
    "meshes": [
        {
            "name": "github_flyer",
            "primitives": [
                {
                    "extensions": {
                        "FB_ngon_encoding": {}
                    },
                    "mode": 4,
                    "material": 0,
                    "indices": 3,
                    "attributes": {
                        "POSITION": 0,
                        "NORMAL": 1,
                        "TEXCOORD_0": 2
                    }
                }
            ]
        }
    ],
    "nodes": [
        {
            "name": "RootNode",
            "children": [
                1
            ]
        },
        {
            "name": "github_flyer_$AssimpFbx$_Translation",
            "matrix": [
                1.0,
                0.0,
                0.0,
                0.0,
                0.0,
                1.0,
                0.0,
                0.0,
                0.0,
                0.0,
                1.0,
                0.0,
                6.332650184631348,
                -4.115834712982178,
                1.0516635179519654,
                1.0
            ],
            "children": [
                2
            ]
        },
        {
            "name": "github_flyer_$AssimpFbx$_RotationPivot",
            "matrix": [
                1.0,
                0.0,
                0.0,
                0.0,
                0.0,
                1.0,
                0.0,
                0.0,
                0.0,
                0.0,
                1.0,
                0.0,
                0.0,
                7.602559566497803,
                0.0,
                1.0
            ],
            "children": [
                3
            ]
        },
        {
            "name": "github_flyer_$AssimpFbx$_RotationPivotInverse",
            "matrix": [
                1.0,
                0.0,
                0.0,
                0.0,
                0.0,
                1.0,
                0.0,
                0.0,
                0.0,
                0.0,
                1.0,
                0.0,
                -0.0,
                -7.602559566497803,
                -0.0,
                1.0
            ],
            "children": [
                4
            ]
        },
        {
            "name": "github_flyer_$AssimpFbx$_ScalingOffset",
            "matrix": [
                1.0,
                0.0,
                0.0,
                0.0,
                0.0,
                1.0,
                0.0,
                0.0,
                0.0,
                0.0,
                1.0,
                0.0,
                0.0,
                -224.1234588623047,
                0.0,
                1.0
            ],
            "children": [
                5
            ]
        },
        {
            "name": "github_flyer_$AssimpFbx$_ScalingPivot",
            "matrix": [
                1.0,
                0.0,
                0.0,
                0.0,
                0.0,
                1.0,
                0.0,
                0.0,
                0.0,
                0.0,
                1.0,
                0.0,
                0.0,
                231.72601318359376,
                0.0,
                1.0
            ],
            "children": [
                6
            ]
        },
        {
            "name": "github_flyer_$AssimpFbx$_Scaling",
            "matrix": [
                0.0007609531749039888,
                0.0,
                0.0,
                0.0,
                0.0,
                0.7792160511016846,
                0.0,
                0.0,
                0.0,
                0.0,
                0.5090776681900024,
                0.0,
                0.0,
                0.0,
                0.0,
                1.0
            ],
            "children": [
                7
            ]
        },
        {
            "name": "github_flyer_$AssimpFbx$_ScalingPivotInverse",
            "matrix": [
                1.0,
                0.0,
                0.0,
                0.0,
                0.0,
                1.0,
                0.0,
                0.0,
                0.0,
                0.0,
                1.0,
                0.0,
                -0.0,
                -231.72601318359376,
                -0.0,
                1.0
            ],
            "children": [
                8
            ]
        },
        {
            "name": "github_flyer",
            "mesh": 0,
            "extras": {
                "UserProperties": "",
                "IsNull": false,
                "DefaultAttributeIndex": 0,
                "InheritType": 1,
                "RotationActive": true,
                "ScalingMax": null,
                "currentUVSet": "map1"
            }
        }
    ],
    "scenes": [
        {
            "nodes": [
                0
            ]
        }
    ],
    "scene": 0
}