{
    "asset": {
        "version": "2.0",
        "generator": "Open Asset Import Library (assimp v5.2.cf7d3637)"
    },
    "extensionsUsed": [
        "KHR_materials_volume",
        "FB_ngon_encoding"
    ],
    "accessors": [
        {
            "bufferView": 0,
            "byteOffset": 0,
            "componentType": 5126,
            "count": 4608,
            "type": "VEC3",
            "max": [
                993.4093627929688,
                107.50548553466797,
                993.527099609375
            ],
            "min": [
                -993.3573608398438,
                1.452985405921936,
                -993.3002319335938
            ]
        },
        {
            "bufferView": 1,
            "byteOffset": 0,
            "componentType": 5126,
            "count": 4608,
            "type": "VEC3",
            "max": [
                0.5468605160713196,
                1.0,
                0.3887564539909363
            ],
            "min": [
                -0.42368704080581667,
                0.8184739351272583,
                -0.5118486285209656
            ]
        },
        {
            "bufferView": 2,
            "byteOffset": 0,
            "componentType": 5126,
            "count": 4608,
            "type": "VEC2",
            "max": [
                0.9951171875,
                0.9951171875
            ],
            "min": [
                0.0048828125,
                0.005931675434112549
            ]
        },
        {
            "bufferView": 3,
            "byteOffset": 0,
            "componentType": 5125,
            "count": 4608,
            "type": "SCALAR",
            "max": [
                4607
            ],
            "min": [
                0
            ]
        }
    ],
    "buffers": [
        {
            "byteLength": 165888,
            "uri": "ground.bin"
        }
    ],
    "bufferViews": [
        {
            "buffer": 0,
            "byteOffset": 0,
            "byteLength": 55296,
            "target": 34962
        },
        {
            "buffer": 0,
            "byteOffset": 55296,
            "byteLength": 55296,
            "target": 34962
        },
        {
            "buffer": 0,
            "byteOffset": 110592,
            "byteLength": 36864,
            "target": 34962
        },
        {
            "buffer": 0,
            "byteOffset": 147456,
            "byteLength": 18432,
            "target": 34963
        }
    ],
    "materials": [
        {
            "name": "ground_substance",
            "pbrMetallicRoughness": {
                "metallicFactor": 0.0
            }
        }
    ],
    "meshes": [
        {
            "name": "ground",
            "primitives": [
                {
                    "extensions": {
                        "FB_ngon_encoding": {}
                    },
                    "mode": 4,
                    "material": 0,
                    "indices": 3,
                    "attributes": {
                        "POSITION": 0,
                        "NORMAL": 1,
                        "TEXCOORD_0": 2
                    }
                }
            ]
        }
    ],
    "nodes": [
        {
            "name": "RootNode",
            "children": [
                1
            ]
        },
        {
            "name": "ground_$AssimpFbx$_RotationPivot",
            "matrix": [
                1.0,
                0.0,
                0.0,
                0.0,
                0.0,
                1.0,
                0.0,
                0.0,
                0.0,
                0.0,
                1.0,
                0.0,
                0.0,
                0.04767013341188431,
                0.0,
                1.0
            ],
            "children": [
                2
            ]
        },
        {
            "name": "ground_$AssimpFbx$_RotationPivotInverse",
            "matrix": [
                1.0,
                0.0,
                0.0,
                0.0,
                0.0,
                1.0,
                0.0,
                0.0,
                0.0,
                0.0,
                1.0,
                0.0,
                -0.0,
                -0.04767013341188431,
                -0.0,
                1.0
            ],
            "children": [
                3
            ]
        },
        {
            "name": "ground_$AssimpFbx$_ScalingOffset",
            "matrix": [
                1.0,
                0.0,
                0.0,
                0.0,
                0.0,
                1.0,
                0.0,
                0.0,
                0.0,
                0.0,
                1.0,
                0.0,
                0.0,
                -1.4053155183792115,
                0.0,
                1.0
            ],
            "children": [
                4
            ]
        },
        {
            "name": "ground_$AssimpFbx$_ScalingPivot",
            "matrix": [
                1.0,
                0.0,
                0.0,
                0.0,
                0.0,
                1.0,
                0.0,
                0.0,
                0.0,
                0.0,
                1.0,
                0.0,
                0.0,
                1.4529856443405152,
                0.0,
                1.0
            ],
            "children": [
                5
            ]
        },
        {
            "name": "ground_$AssimpFbx$_Scaling",
            "matrix": [
                0.03280840069055557,
                0.0,
                0.0,
                0.0,
                0.0,
                0.03280840069055557,
                0.0,
                0.0,
                0.0,
                0.0,
                0.03280840069055557,
                0.0,
                0.0,
                0.0,
                0.0,
                1.0
            ],
            "children": [
                6
            ]
        },
        {
            "name": "ground_$AssimpFbx$_ScalingPivotInverse",
            "matrix": [
                1.0,
                0.0,
                0.0,
                0.0,
                0.0,
                1.0,
                0.0,
                0.0,
                0.0,
                0.0,
                1.0,
                0.0,
                -0.0,
                -1.4529856443405152,
                -0.0,
                1.0
            ],
            "children": [
                7
            ]
        },
        {
            "name": "ground",
            "mesh": 0,
            "extras": {
                "UserProperties": "",
                "IsNull": false,
                "DefaultAttributeIndex": 0,
                "InheritType": 1,
                "RotationActive": true,
                "ScalingMax": null,
                "currentUVSet": "map1"
            }
        }
    ],
    "scenes": [
        {
            "nodes": [
                0
            ]
        }
    ],
    "scene": 0
}