{
    "asset": {
        "version": "2.0",
        "generator": "Open Asset Import Library (assimp v5.2.cf7d3637)"
    },
    "extensionsUsed": [
        "KHR_materials_volume",
        "FB_ngon_encoding"
    ],
    "accessors": [
        {
            "bufferView": 0,
            "byteOffset": 0,
            "componentType": 5126,
            "count": 672,
            "type": "VEC3",
            "max": [
                193.086669921875,
                158.20458984375,
                4.790569305419922
            ],
            "min": [
                187.2725067138672,
                100.45166015625,
                -33.73994445800781
            ]
        },
        {
            "bufferView": 1,
            "byteOffset": 0,
            "componentType": 5126,
            "count": 672,
            "type": "VEC3",
            "max": [
                -0.844063401222229,
                0.4440993368625641,
                0.23137639462947846
            ],
            "min": [
                -1.0,
                -0.0000035666589610627854,
                -0.300554096698761
            ]
        },
        {
            "bufferView": 2,
            "byteOffset": 0,
            "componentType": 5126,
            "count": 672,
            "type": "VEC2",
            "max": [
                2.6633949279785158,
                -0.0048828125
            ],
            "min": [
                2.0048828125,
                -0.9951171875
            ]
        },
        {
            "bufferView": 3,
            "byteOffset": 0,
            "componentType": 5125,
            "count": 672,
            "type": "SCALAR",
            "max": [
                671
            ],
            "min": [
                0
            ]
        }
    ],
    "buffers": [
        {
            "byteLength": 24192,
            "uri": "linkedin_flyer.bin"
        }
    ],
    "bufferViews": [
        {
            "buffer": 0,
            "byteOffset": 0,
            "byteLength": 8064,
            "target": 34962
        },
        {
            "buffer": 0,
            "byteOffset": 8064,
            "byteLength": 8064,
            "target": 34962
        },
        {
            "buffer": 0,
            "byteOffset": 16128,
            "byteLength": 5376,
            "target": 34962
        },
        {
            "buffer": 0,
            "byteOffset": 21504,
            "byteLength": 2688,
            "target": 34963
        }
    ],
    "materials": [
        {
            "name": "posters_texture2",
            "pbrMetallicRoughness": {
                "metallicFactor": 0.0
            }
        }
    ],
    "meshes": [
        {
            "name": "linkedin_flyer",
            "primitives": [
                {
                    "extensions": {
                        "FB_ngon_encoding": {}
                    },
                    "mode": 4,
                    "material": 0,
                    "indices": 3,
                    "attributes": {
                        "POSITION": 0,
                        "NORMAL": 1,
                        "TEXCOORD_0": 2
                    }
                }
            ]
        }
    ],
    "nodes": [
        {
            "name": "RootNode",
            "children": [
                1
            ]
        },
        {
            "name": "linkedin_flyer",
            "matrix": [
                0.03280840069055557,
                0.0,
                0.0,
                0.0,
                0.0,
                0.03280840069055557,
                0.0,
                0.0,
                0.0,
                0.0,
                0.03280840069055557,
                0.0,
                0.0,
                0.0,
                0.0,
                1.0
            ],
            "mesh": 0,
            "extras": {
                "UserProperties": "",
                "IsNull": false,
                "DefaultAttributeIndex": 0,
                "InheritType": 1,
                "RotationActive": true,
                "ScalingMax": null,
                "currentUVSet": "map1"
            }
        }
    ],
    "scenes": [
        {
            "nodes": [
                0
            ]
        }
    ],
    "scene": 0
}