<svg width="191" height="191" viewBox="0 0 191 191" fill="none" xmlns="http://www.w3.org/2000/svg">
<path d="M47.6716 77.3284L84.1716 40.8284C86.6914 38.3086 91 40.0932 91 43.6569L91 147.42C91 150.973 86.7139 152.762 84.1876 150.264L47.6688 114.156C46.92 113.415 45.9094 113 44.8564 113H26C23.7909 113 22 111.209 22 109V96V82.5C22 80.2909 23.7909 78.5 26 78.5H44.8431C45.904 78.5 46.9214 78.0786 47.6716 77.3284Z" fill="white" stroke="white"/>
<path d="M133 142C165 119 166.5 70 133 50" stroke="white" stroke-width="7" stroke-linecap="round"/>
<path d="M121 129C144.447 112.25 145.546 76.5652 121 62" stroke="white" stroke-width="7" stroke-linecap="round"/>
<path d="M111 112C122.724 104 123.273 86.9565 111 80" stroke="white" stroke-width="7" stroke-linecap="round"/>
<circle cx="95.5" cy="95.5" r="92" stroke="white" stroke-width="7"/>
</svg>
